<mxfile host="app.diagrams.net" modified="2023-09-28T20:20:29.162Z" agent="Mozilla/5.0 (Windows NT 10.0; Win64; x64) AppleWebKit/537.36 (KHTML, like Gecko) Chrome/117.0.0.0 Safari/537.36" version="22.0.0" etag="NoJtRM7QPIkZQPA_LqbC" type="github">
  <diagram name="Page-1" id="tZXl9hKBafqlotpbyCxN">
    <mxGraphModel>
      <root>
        <mxCell id="0" />
        <mxCell id="1" parent="0" />
      </root>
    </mxGraphModel>
  </diagram>
</mxfile>
